<?xml version="1.0" encoding="utf-8" ?>
<svg xmlns="http://www.w3.org/2000/svg" xmlns:xlink="http://www.w3.org/1999/xlink" width="500" height="500">
	<path fill="white" transform="scale(0.488281 0.488281)" d="M-0 -0L1024 0L1024 1024L-0 1024L0 -0Z"/>
	<path transform="scale(0.488281 0.488281)" d="M648.116 37.1236C649.443 36.8863 651.183 36.6146 652.451 37.1693C653.749 37.7374 654.719 38.9957 655.235 40.2751C657.772 46.5697 659.106 54.0239 660.919 60.5719L673.241 104.806L695.6 178.47C727.679 281.918 764.348 383.629 807.646 482.942L829.723 533.485L888.306 649.48C908.067 685.001 929.213 719.769 953.544 752.377C960.587 761.816 967.931 771.597 976.026 780.149C978.467 782.727 980.957 785.368 983.603 787.735C986.227 790.082 990.312 791.707 991.862 794.998C992.646 796.662 992.665 798.56 991.951 800.253C991.128 802.206 989.422 803.687 987.455 804.409L951.504 816.077L878.945 839.048L635.505 915.903L484.5 963.529L439.736 977.771C430.429 980.801 420.842 984.689 411.217 986.508C401.317 988.378 392.582 985.642 383.702 981.509L377.25 977.918C360.615 967.581 347.226 950.25 335.73 934.732C317.25 909.784 301.145 883.335 285.324 856.657C240.464 781.011 200.407 702.229 162.908 622.707L102.25 486.858L65.9368 388.657C56.6369 360.773 48.1416 332.955 41.7006 304.239C38.6677 290.717 35.8763 277.302 34.4161 263.5C32.5175 245.553 32.4595 226.377 42.6113 210.641C47.923 202.407 55.9631 196.367 65.0867 192.93C73.7058 189.683 82.8825 187.724 91.7618 185.323L143.873 171.541L301.268 130.127L519.792 69.963L648.116 37.1236Z"/>
	<path fill="white" transform="scale(0.488281 0.488281)" d="M72.9151 204.597C77.9752 204.06 82.9115 204.2 87.7578 205.94C98.3861 209.756 106.562 219.762 111.989 229.247C124.309 250.778 127.6 276.959 133.762 300.713L151.256 362.899L166.729 410.899L203.646 514.318C242.821 615.073 285.929 714.663 335.003 811.02L378.575 891.912C386.787 906.336 396.287 920.347 403.523 935.261C408.066 944.625 413.874 960.205 409.845 970.616C409.22 972.23 408.419 973.415 406.75 974.023C402.463 975.583 395.054 971.932 391.242 970.066L386.689 967.464C374.543 959.658 365.364 948.995 356.254 937.996C333.073 910.012 314.315 878.33 295.93 847.078L221.97 710.542L156.208 573.506L110.367 467.555C87.7884 410.652 67.1182 352.914 53.75 293.072C49.1505 272.482 41.7078 236.599 53.787 217.934C58.3384 210.902 64.7564 206.387 72.9151 204.597Z"/>
	<path fill="white" transform="scale(0.488281 0.488281)" d="M644.732 52.1009L645.515 51.9646C645.525 51.9641 646.688 52.0766 646.75 52.1195C647.477 52.6235 649.277 61.0571 649.665 62.4902L678.267 160.839L753.134 380.439L785.479 459.746C819.132 540.357 856.038 619.575 901.18 694.461C915.166 717.663 930.015 740.072 946.196 761.806C954.566 773.047 963.012 784.102 972.78 794.178C971.237 795.399 967.728 796.036 965.791 796.652L948.79 802.067L862.574 829.309L611.683 908.915L424.653 967.854C423.761 968.099 423.592 968.138 422.644 967.933C421.996 956.408 420.324 946.549 415.809 935.797C412.086 926.929 406.832 918.778 401.992 910.5L381.365 874.683L324.51 765.426L265.792 637.954L214.221 511.524C184.061 433.294 157.349 353.971 137.594 272.436C130.848 244.592 122.34 214.449 96.4243 198.652L644.732 52.1009Z"/>
	<path transform="scale(0.488281 0.488281)" d="M807.08 691.06C808.383 690.935 809.772 690.779 811.02 691.277C812.248 691.767 813.743 693.179 814.229 694.427C814.821 695.946 814.745 698.591 813.955 700C813 701.703 811.286 702.731 809.495 703.354L785.071 710.772L709.062 734.146L446.071 816.433L443.25 816.526C441.366 816.319 440.108 815.112 439.103 813.607C438.294 812.397 438.168 809.692 438.691 808.296C439.052 807.332 440.139 806.413 441 805.915C445.429 803.355 452.443 802.122 457.422 800.516L506.058 784.869L807.08 691.06Z"/>
	<path transform="scale(0.488281 0.488281)" d="M631.712 262.52C632.667 262.632 633.653 262.744 634.55 263.11C636.265 263.809 637.487 265.206 638.088 266.949C638.593 268.413 638.76 270.366 637.997 271.75C637.353 272.917 635.85 273.954 634.646 274.46C631.081 275.96 626.983 276.864 623.275 278.007L596.236 286.001L343.986 360.36L286.366 377.369C275.469 380.624 264.512 384.343 253.435 386.906C252.641 387.037 252.114 386.992 251.317 386.785C249.239 386.248 247.751 384.055 246.869 382.25C246.829 380.535 246.947 379.37 247.53 377.75C248.903 376.151 250.005 375.592 252.005 374.957L280.48 366.77L348.922 346.75L631.712 262.52Z"/>
	<path transform="scale(0.488281 0.488281)" d="M682.547 403.551C683.879 403.388 685.07 403.514 686.392 403.662C688.042 404.703 689.214 405.657 689.899 407.55C690.497 409.203 690.459 410.833 689.58 412.381C688.688 413.951 686.916 414.953 685.279 415.566C672.162 420.48 658.096 423.934 644.655 427.934L571.069 450.077L380.745 507.441L316.814 525.215C315.621 525.361 314.12 525.652 312.939 525.357C311.131 524.904 309.892 523.907 309.06 522.231C308.327 520.756 308.279 518.491 309.027 517C310.227 514.61 312.77 514.084 315.144 513.426L491.859 461.244L589.012 432.042L682.547 403.551Z"/>
	<path transform="scale(0.488281 0.488281)" d="M747.937 546.087C748.983 545.95 750.103 545.784 751.122 546.14C752.853 546.746 754.04 548.109 754.639 549.812C755.391 551.952 754.801 553.913 753.847 555.855C752.345 557.114 751.036 557.831 749.187 558.489L691.127 576.267L593.69 605.996L437.744 653.292L375.98 671.736C375.049 671.773 374.124 671.729 373.204 671.579C371.594 671.317 370.15 670.44 369.368 668.953C368.546 667.392 368.471 665.107 369.24 663.523C369.985 661.989 371.005 661.04 372.623 660.535L747.937 546.087Z"/>
	<path transform="scale(0.488281 0.488281)" d="M597.985 142.569C599.226 142.498 600.335 142.455 601.521 142.893C602.833 143.376 603.901 144.416 604.478 145.685C605.251 147.382 605.78 149.496 604.966 151.25C604.611 152.015 603.914 152.74 603.279 153.278C600.875 155.318 596.057 156.074 593.068 157.026L569.401 164.562L352.553 228.174L212.608 267.032C211.26 267.334 210.08 267.509 208.75 266.951C207.481 266.418 206.253 265.173 205.75 263.892C205.164 262.4 205.066 260.302 205.75 258.825C206.244 257.757 207.196 256.9 208.222 256.356C211.165 254.796 215.091 254.096 218.317 253.186L237.414 247.787L458.07 185.174L597.985 142.569Z"/>
</svg>
