<?xml version="1.0" encoding="utf-8" ?>
<svg xmlns="http://www.w3.org/2000/svg" xmlns:xlink="http://www.w3.org/1999/xlink" width="500" height="500">
	<path fill="white" transform="scale(0.488281 0.488281)" d="M-0 -0L1024 0L1024 1024L-0 1024L0 -0Z"/>
	<path transform="scale(0.488281 0.488281)" d="M687.557 158.205C704.781 156.114 719.849 161.408 734.336 170.286C755.734 183.398 776.337 201.086 792.046 220.648C797.879 227.911 802.887 235.876 808.279 243.469C822.632 263.676 837.601 284.731 855.084 302.36C864.981 312.34 876.55 319.999 887.284 328.986L926.178 364.023C935.046 372.078 944.969 379.898 951.247 390.261C955.078 396.585 957.29 404.148 959.335 411.199L965.121 431.5L982.306 498.841L990.781 539.182C993.362 553.329 996.622 570.274 994.146 584.607C992.284 595.382 987.394 605.496 981.682 614.732C975.037 625.475 967.373 635.688 959.772 645.768C948.69 660.465 937.249 675.423 923.183 687.435C910.154 698.561 894.299 707.557 879.725 716.582L827.216 749.385L736.5 807.022L696.435 832.624C691.02 835.92 685.419 839.837 679.5 842.106C671.83 845.046 661.693 845.309 653.5 846.08C638.864 847.458 623.843 848.76 609.129 848.276C560.311 846.669 512.277 835.519 463.33 835.194C439.539 835.036 415.708 837.058 392.25 841.002L338.891 852.484L281.75 864.469C273.685 865.318 263.802 863.284 255.783 862.163C215.025 856.47 175.593 845.763 135.277 838.003L106.843 833.405C104.307 833.035 96.8524 832.798 95.1493 831.338C92.4537 829.027 90.2697 824.557 88.3443 821.518L59.4443 770.629C51.4602 756.291 42.4488 742.384 35.7286 727.384C32.4523 720.072 29.705 712.418 28.9497 704.399C28.3589 698.128 28.7591 691.919 30.0262 685.744C33.1091 670.723 39.0963 656.019 44.1041 641.544L58.7186 599.889C65.1109 582.17 72.0547 564.452 82.5833 548.719C94.0826 531.534 109.252 517.565 121.63 501.169C127.045 493.996 131.63 486.237 135.451 478.105C141.05 466.19 144.961 453.304 149.311 440.894L166.635 392.453C173.441 373.423 179.34 353.401 192.533 337.641C201.342 327.12 212.746 318.961 224.81 312.562C253.046 297.584 284.278 290.881 313.312 278.012L363.927 252.543C379.058 244.447 393.76 236.397 410.013 230.666C433.613 222.344 458.435 219.582 482.5 213.002L603.779 178.682L645.576 166.844C659.427 163.066 673.223 159.533 687.557 158.205Z"/>
	<path fill="white" transform="scale(0.488281 0.488281)" d="M691.032 169.21C695.125 168.901 699.739 168.84 703.75 169.739L655.932 200.684L572.202 255.154L539.282 276.656C531.978 281.469 524.393 287.15 516.552 290.991C509.778 294.31 502.125 296.735 495.039 299.397L461.525 312.244L344.245 359.364L327.847 366.36C326.727 366.862 324.203 367.621 323.341 368.401C321.547 370.026 319.89 373.941 318.653 376.06L304.965 400L275.736 450.615C270.285 459.996 265.101 470.147 258.928 479.035C254.435 485.505 248.052 491.502 242.762 497.38L202.187 542.508C197.566 547.918 191.954 553.577 188.423 559.738C192.757 556.419 196.705 552.466 200.672 548.719L226.695 522.754L252.872 495.877C256.355 492.097 260.276 488.298 263.334 484.17C265.072 481.825 266.342 479.031 267.804 476.504L277.172 460.368L302.205 417.376L320.245 385.735C322.21 382.283 324.577 376.506 327.267 373.717C328.255 372.692 330.918 371.811 332.298 371.2L348.476 364.492L464.544 317.774L502.391 303.343C508.381 301.05 514.963 299.066 520.628 296.105C525.224 293.703 529.624 290.207 533.95 287.324L558.667 271.253L667.41 200.327C682.189 190.777 696.678 180.071 712.044 171.544L718.584 174.384C737.92 184.47 756.106 199.284 771.491 214.639C785.013 228.134 795.252 244.511 806.228 260.061C816.618 274.783 827.928 289.376 840.006 302.759C852.432 316.529 866.973 326.693 881.08 338.498L918.929 372.611C925.613 378.766 933.865 385.062 939.267 392.319C942.775 397.031 944.883 402.671 946.611 408.227L956.689 444.914L973.153 510.783C978.231 533.323 984.14 557.002 982.771 580.266C982.642 582.458 982.75 585.47 981.945 587.5C980.991 589.904 972.355 592.428 969.622 593.511L855.445 638.905L822.67 651.904C818.059 653.755 811.88 655.389 807.984 658.416C805.824 660.095 803.992 662.62 802.203 664.704L793.22 675.025L748.157 727.957L718.979 762.611C714.578 767.859 709.029 772.933 705.837 779.015C710.403 776.94 713.748 772.902 717.191 769.37L731.062 754.767L774.245 706.919L810.361 664.926C811.495 663.713 812.545 662.805 814.078 662.148L978.938 596.538C968.827 617.272 953.354 636.853 938.581 654.445C930.227 664.394 921.768 674.498 911.523 682.582C904.901 687.806 897.312 692.246 890.212 696.805L836.424 730.043L737.669 792.18L700.652 815.669L682.211 827.033C679.081 828.854 675.769 831.04 672.25 831.959C662.5 834.506 650.465 834.899 640.412 835.401C629.477 835.948 618.536 836.701 607.581 836.389C578.659 835.566 549.867 830.866 521.191 827.322C487.275 823.308 453.094 821.612 419.072 825.265C394.54 827.899 370.097 833.258 346.092 838.886L298.239 849.447C291.746 850.813 284.057 853.215 277.5 853.343C270.783 853.475 263.084 851.666 256.392 850.725C227.085 846.606 198.573 840.182 169.726 833.739L101.692 821.355L68.9821 764.305C71.4424 760.769 76.3619 757.32 79.6426 754.388L120.5 718.982L175.327 669.787L298.086 552.742L332.418 519.387C338.605 513.37 344.734 506.666 351.482 501.301C356.205 497.546 361.819 494.609 367 491.525L390.899 477.25L417.507 461.275C422.778 458.135 428.163 454.581 433.788 452.141C439.296 449.752 445.398 448.204 451.151 446.472L474.784 439.215L574.841 410.294L597.562 404.183C603.188 402.716 609.433 401.779 614.518 398.851C619.833 395.79 624.144 390.391 628.334 385.993L646.942 366.335L704.776 303.791L719.748 287.017C723.393 282.925 727.413 278.824 730.372 274.194L671.721 331.286L633.758 371.415L621.665 384.217C618.83 387.186 615.898 390.489 612.421 392.706C606.244 396.644 596.81 397.992 589.684 399.752L568.195 405.489L494.496 426.81L454.035 438.899C447.003 441.058 439.719 442.905 432.842 445.495C428.998 446.943 425.528 449.479 421.972 451.518L392.69 468.983L349.96 494.575C345.484 497.446 341.451 501.982 337.62 505.655L314.903 527.607L227.405 612.163L135.121 697.512C112.086 718.102 87.9081 737.986 66.0587 759.813L50.4752 731.742C43.9902 719.627 38.3976 707.495 40.2878 693.384C41.6404 683.286 44.9522 673.726 48.2488 664.128L57.478 637.272C64.6416 616.565 71.1972 594.988 80.4293 575.105C84.5444 566.243 89.6909 557.826 95.458 549.946C111.606 527.882 132.791 509.98 144.75 484.95C150.787 472.315 154.978 458.668 159.62 445.467L179.766 389.896C185.661 374.172 190.368 357.318 201.722 344.505C210.117 335.03 219.818 328.221 231.021 322.43C259.197 307.866 290.246 300.743 319.097 287.899L355.248 270.1C374.473 259.664 393.09 248.724 413.819 241.41C430.863 235.396 448.057 232.564 465.625 228.807L492.77 221.837L592.685 193.519L646.94 178.042C661.439 174.19 675.982 170.077 691.032 169.21Z"/>
	<path transform="scale(0.488281 0.488281)" d="M538.949 745.22C539.953 745.041 541.217 745.201 542.25 745.212C529.452 749.115 515.563 750.577 502.35 752.576L449.546 760.344C439.776 761.668 428.76 762.324 419.262 764.899C415.649 765.879 411.908 767.902 408.5 769.49L387.635 779.747L353.283 796.556C338.475 803.923 323.18 811.587 307.619 817.225C306.867 817.508 306.029 817.668 305.25 817.874L305.62 817.25C306.349 816.368 308.613 815.368 309.633 814.752L321.033 808.093L396.95 768.08L410.36 761.34C413.102 759.974 416.059 758.314 419.058 757.635C422.893 756.766 427.085 756.528 431.004 756.071L458.043 753.262L538.949 745.22Z"/>
	<path transform="scale(0.488281 0.488281)" d="M930.144 475.813C928.247 481.969 924.939 487.887 922.139 493.675L906.797 524.46L894.935 547.359C892.267 552.366 889.656 557.968 885.75 562.14C881.904 566.247 876.993 568.844 872.165 571.606L857.563 580.081L771.06 630.25L750.748 642.032C745.998 644.812 740.966 647.612 736.782 651.216C731.552 655.722 727.647 661.019 723.536 666.504L705.718 691.588L650.444 770.263C649.091 772.136 647.459 775 645.432 776.128C644.498 776.648 644.232 776.344 643.25 776.113C642.543 775.284 642.222 774.915 642.062 773.794C641.672 771.053 663.649 741.003 666.989 736.209L708.114 677.297C714.706 668.1 721.105 657.523 729.281 649.648C739.538 639.769 753.831 632.988 766.066 625.825L828.14 589.996L861.925 570.339C867.682 567.007 875.372 563.763 880.165 559.25C883.968 555.668 886.478 550.498 888.989 545.982L900.542 525C909.962 508.378 919.358 491.593 930.144 475.813Z"/>
</svg>
