<?xml version="1.0" encoding="utf-8" ?>
<svg xmlns="http://www.w3.org/2000/svg" xmlns:xlink="http://www.w3.org/1999/xlink" width="500" height="500">
	<path fill="white" transform="scale(0.488281 0.488281)" d="M-0 -0L1024 0L1024 1024L-0 1024L0 -0Z"/>
	<path transform="scale(0.488281 0.488281)" d="M263.997 21.75C264.782 21.7259 264.901 21.6939 265.75 21.8096C267.748 22.082 269.211 23.8342 270.214 25.4132L296.679 68.9344L330.064 123.106L444.612 308.691L512.518 418.709L595.805 281.908L663.863 171.195L715.54 87.0158L743.006 42.2865L753.391 25.5988C754.351 24.196 755.32 22.7862 756.959 22.1393C758.594 21.4942 761.387 21.2263 763 22.0445C765.293 23.2078 766.368 25.5943 767.205 27.8676C778.886 59.607 779.307 96.575 777.06 130C772.624 195.957 751.448 260.64 720.047 318.598L694.521 361.026L625.852 475.772L603.796 513.425C597.321 524.335 590.208 535.355 584.899 546.878L626.715 609.855C629.358 607.405 632.852 603.336 636.072 601.883C637.473 601.251 639.455 601.208 640.876 601.783C643.327 602.776 645.89 605.17 648.011 606.775L661.434 616.975L700.25 645.988L828.068 740.44L862.497 766.201C873.297 774.186 884.54 781.963 894.396 791.115C907.444 803.232 917.787 817.678 924.99 833.945C937.302 861.752 938.179 895.627 927.123 923.984C915.301 954.308 892.141 979.268 862.103 992.251C833.844 1004.47 802.349 1005.37 773.732 994.013C760.038 988.405 748.04 980.892 737.18 970.844C730.979 965.107 725.139 958.649 720.259 951.744L688.456 902.825L621.788 799.372L566.892 713.572C559.584 702.088 551.363 690.871 544.575 679.102C543.76 677.688 543.227 676.297 543.226 674.647C543.224 671.327 545.294 669.747 547.451 667.584L514.291 617.988C513.067 618.369 510.175 618.828 509.166 619.482C508.494 619.918 507.587 621.648 507.155 622.326L502.49 629.624L477.972 666.915C478.951 668.569 480.104 670.325 480.721 672.149C481.373 674.078 480.698 676.039 479.76 677.75C477.268 682.29 473.973 686.668 471.159 691.047L450.045 723.721L377.855 836.392L327.307 915.116C316.137 932.495 305.595 951.143 291.53 966.353C278.097 980.88 260.065 991.928 241.118 997.564C213.169 1005.88 180.492 1003.52 154.696 989.543C148.2 986.023 141.683 982.224 135.823 977.713C116.009 962.458 101.149 939.851 94.1584 915.954C84.7561 883.813 89.2096 850.393 105.31 821.101C112.123 808.707 121.72 796.822 132.498 787.599C137.18 783.592 142.349 780.082 147.279 776.387L177.886 753.75L315.577 651.859L359.345 619.503L375.63 607.25C377.458 605.87 380.501 602.969 382.75 602.521C388.431 601.39 393.571 606.593 397.765 609.777L435.448 546.674C435.924 545.833 438.543 541.762 438.471 541.228C438.27 539.738 434.76 535.176 433.831 533.646L350.862 396.823L322.506 350.163L304.837 321.262C286.689 288.763 272.02 252.378 262.104 216.537C254.22 188.037 249.715 158.943 247.41 129.5C245.058 99.4683 244.411 69.5283 253.705 40.4787C255.386 35.2256 257.1 28.9348 260.044 24.25C261.056 22.639 262.201 22.1788 263.997 21.75Z"/>
	<path fill="white" transform="scale(0.488281 0.488281)" d="M576.147 561.088L614.591 618.691L564.728 656.269L560.182 659.651L528.215 611.504C535.077 607.785 541.841 603.769 547.811 598.705C560.181 588.211 568.43 575.139 576.147 561.088Z"/>
	<path fill="white" transform="scale(0.488281 0.488281)" d="M266.738 49.6954L503.369 433.901L466.827 494.695L447.783 526.721C446.391 525.468 445.364 523.162 444.403 521.536L437.332 509.525L413.499 470.5L351.674 369.052L319.261 315.444C286.607 257.925 267.618 192.601 262.415 126.804C260.424 101.633 260.016 74.2652 266.738 49.6954Z"/>
	<path fill="white" transform="scale(0.488281 0.488281)" d="M757.242 48.2199L758.302 52.0761C760.38 61.3446 761.183 70.958 761.919 80.4145C763.65 102.652 763.303 124.617 760.518 146.75C752.712 208.8 730.875 268.178 700.296 322.531L688.93 340.842L671.977 369.068L621.393 453.348L588.626 509.335L575.906 530.407L562.272 554.069C558.243 561.111 554.298 568.276 549.311 574.701C539.999 586.699 526.76 597.04 512.188 601.674L503.167 604.068C502.533 604.241 500.936 604.496 500.44 604.815C499.416 605.473 498.187 607.827 497.503 608.902L489.517 621.5L464.761 659.346L436.908 638.399L410.519 618.769L757.242 48.2199Z"/>
	<path transform="scale(0.488281 0.488281)" d="M507.757 508.144C515.484 507.287 522.977 508.297 529.694 512.45C537.345 517.182 542.549 524.771 544.575 533.5C546.416 541.432 545.2 549.566 541.119 556.626C536.118 565.277 528.356 569.986 518.882 572.453C509.686 573.109 502.176 571.557 494.451 566.373C486.797 561.235 481.495 552.817 479.875 543.759C478.463 535.859 480.071 527.28 484.762 520.721C490.058 513.314 499.042 509.514 507.757 508.144Z"/>
	<path fill="white" transform="scale(0.488281 0.488281)" d="M507.964 523.571C511.41 523.348 514.652 523.117 517.99 524.26C522.706 525.876 526.268 529.281 528.311 533.797C530.034 537.603 530.407 542.041 528.768 545.94C526.613 551.062 522.265 554.303 517.252 556.3C513.281 557.043 509.737 557.347 505.94 555.535C501.336 553.338 497.438 549.083 495.887 544.209C494.558 540.032 494.147 534.782 496.381 530.847C498.864 526.473 503.426 524.903 507.964 523.571Z"/>
	<path fill="white" transform="scale(0.488281 0.488281)" d="M639.555 619.416L658.493 633.921L779.386 723.639L845.5 772.502L866.454 788.269C873.807 793.763 881.198 799.17 887.664 805.721C900.099 818.319 909.961 834.195 915.088 851.171C923.363 878.573 919.361 908.616 905.81 933.614C892.251 958.627 866.949 975.808 840.164 983.711C823.31 987.886 806.077 987.686 789.311 983.188C770.808 978.225 754.465 967.614 741.49 953.592C735.979 947.636 731.765 941.113 727.308 934.383L710.177 907.996L655.716 823.989L601.144 739.004L561.975 677.404C563.516 675.132 568.187 672.645 570.5 670.933L600.736 648.75L639.555 619.416Z"/>
	<path transform="scale(0.488281 0.488281)" d="M764.989 772.695C776.526 771.241 790.133 774.171 800.235 779.869C803.326 781.613 806.04 784.024 808.865 786.152L826.87 799.647L846.799 814.702C853.712 819.868 860.596 824.832 866.436 831.25C873.754 839.293 879.887 850.126 882.805 860.627C888.241 880.188 885.687 900.754 875.508 918.338C865.569 935.509 848.553 946.633 829.655 951.599L822.673 952.682C804.894 954.884 787.352 949.313 773.323 938.434C769.538 935.498 765.977 932.216 762.911 928.528C755.696 919.851 749.782 909.772 743.304 900.51L726.793 876.861C723.578 872.186 720.063 867.495 717.425 862.469C713.871 855.696 711.205 848.403 710.305 840.781C708.4 824.661 711.825 808.406 722.076 795.521C733.071 781.702 747.639 774.652 764.989 772.695Z"/>
	<path fill="white" transform="scale(0.488281 0.488281)" d="M766.354 787.688C774.651 787.294 783.389 788.554 790.845 792.428C799.547 796.95 807.979 804.642 815.852 810.514C836.114 825.625 859.884 838.919 867.969 864.466C872.535 878.893 870.641 895.208 863.597 908.5C856.392 922.095 843.086 931.849 828.551 936.249L827.922 936.377L823.77 937.214C809.623 939.389 795.569 936.027 784.128 927.477C780.606 924.845 777.318 921.829 774.499 918.45C765.227 907.334 757.403 894.536 749.247 882.574C742.723 873.005 735.062 863.312 729.794 853.017C727.428 848.391 725.674 843.155 725.016 838C723.5 826.107 726.843 814.592 734.1 805.114C742.267 794.447 753.29 789.365 766.354 787.688Z"/>
	<path fill="white" transform="scale(0.488281 0.488281)" d="M384.904 619.606L461.87 676.103L355.702 842.972L314.971 906.409L298.622 931.383C294.964 936.962 291.568 942.652 287.442 947.913C280.529 956.727 271.856 964.672 262.495 970.789C239.049 986.11 212.174 990.153 184.981 984.402C162.792 978.75 142.813 967.053 128.43 948.988C111.751 928.038 101.481 899.451 104.796 872.442L106.373 861.811C110.189 841.333 120.442 821.808 134.614 806.615C145.694 794.736 160.283 785.784 173.312 776.146L234.574 730.753L319.75 667.777L355.055 641.619L384.904 619.606Z"/>
	<path transform="scale(0.488281 0.488281)" d="M249.232 770.194C250.388 769.962 251.785 770.067 252.967 770.039C268.951 769.657 284.914 775.036 296.559 786.265C308.576 797.853 315.831 813.311 315.995 830.063C316.072 837.983 314.848 845.69 311.826 853.031C307.336 863.934 301.138 872.557 294.397 882.087L275.753 908.14C269.975 916.117 264.946 924.674 258.001 931.727C243.652 946.3 225.781 951.885 205.797 952.002C191.153 951.074 178.001 946.672 166.208 937.777C150.664 926.054 141.317 908.666 138.859 889.494C136.435 870.579 142.491 850.151 154.283 835.261C157 831.83 160.106 828.506 163.392 825.617C171.915 818.124 181.282 811.543 190.182 804.508L210.944 788.127C216.386 783.868 221.875 779.392 228.011 776.163C234.955 772.509 241.51 771.061 249.232 770.194Z"/>
	<path fill="white" transform="scale(0.488281 0.488281)" d="M250.342 785.171C252.306 784.858 254.467 784.953 256.456 784.975C268.066 785.099 280.026 791.005 287.992 799.234C296.752 808.284 300.814 819.792 300.615 832.271C300.501 839.454 298.623 846.157 295.532 852.641C293.747 856.385 291.188 859.8 288.836 863.207L277.279 879.702L259.942 904.291C255.463 910.569 251.06 916.996 245.48 922.36C234.575 932.845 220.9 936.91 206.066 936.68C195.349 936.174 185.522 932.766 176.849 926.432C164.274 917.248 156.387 904.058 154.049 888.713C151.836 874.195 156.078 858.711 164.737 846.966C166.625 844.405 168.593 841.941 170.933 839.777C182.67 828.92 196.054 819.491 208.624 809.617L222.041 799.04C226.002 795.844 229.923 792.467 234.379 789.97C239.349 787.185 244.759 785.985 250.342 785.171Z"/>
</svg>
